<svg xmlns="http://www.w3.org/2000/svg" xmlns:xlink="http://www.w3.org/1999/xlink" version="1.1" width="256" height="256" viewBox="0 0 256 256" xml:space="preserve">

<defs>
</defs>
<g style="stroke: none; stroke-width: 0; stroke-dasharray: none; stroke-linecap: butt; stroke-linejoin: miter; stroke-miterlimit: 10; fill: none; fill-rule: nonzero; opacity: 1;" transform="translate(1.4065934065934016 1.4065934065934016) scale(2.81 2.81)" >
	<path d="M 48.454 82.069 c -0.417 0 -0.837 -0.087 -1.231 -0.265 c -1.076 -0.485 -1.768 -1.556 -1.768 -2.735 V 61.334 H 28.869 c -10.011 0 -18.85 6.824 -23.068 17.811 c -0.519 1.351 -1.926 2.133 -3.348 1.875 C 1.031 80.756 0 79.516 0 78.069 V 66.56 c 0 -16.268 2.937 -37.894 28.327 -37.894 h 17.128 V 10.931 c 0 -1.18 0.691 -2.25 1.768 -2.735 c 1.075 -0.484 2.337 -0.293 3.219 0.487 l 38.545 34.07 C 89.631 43.322 90 44.14 90 45 s -0.369 1.679 -1.014 2.248 L 50.441 81.317 C 49.883 81.812 49.173 82.069 48.454 82.069 z" style="stroke: none; stroke-width: 1; stroke-dasharray: none; stroke-linecap: butt; stroke-linejoin: miter; stroke-miterlimit: 10; fill: rgb(0,0,0); fill-rule: nonzero; opacity: 1;" transform=" matrix(1 0 0 1 0 0) " stroke-linecap="round" />
</g>
</svg>